# xmcd CD database file
#
# Track frame offsets:
#	150
#	22430
#	44618
#	65101
#	92874
#	117157
#	160460
#	183101
#	198681
#	216222
#
# Disc length: 3131 seconds
#
# Revision: 0
# Processed by: cddbd v1.5.2PL0 Copyright (c) Steve Scherf et al.
# Submitted via: CDex 1.70beta3
#
DISCID=9d0c390a
DTITLE=Tiny Grimes - Some Groovy Fours
DYEAR=1974
DGENRE=Jazz
TTITLE0=Tiny's Boogie Woogie
TTITLE1=Everyday I Have The Blues
TTITLE2=Swinging Mama
TTITLE3=Some Groovy Fours
TTITLE4=I Found A New Baby
TTITLE5=Tee-Nine-Sy
TTITLE6=Lester Leaps In
TTITLE7=Sid West End Blues
TTITLE8=Lil Darlin'
TTITLE9=Swinging Mama (take 2)
EXTD=YEAR: 1974
EXTT0=
EXTT1=
EXTT2=
EXTT3=
EXTT4=
EXTT5=
EXTT6=
EXTT7=
EXTT8=
EXTT9=
PLAYORDER=
